<svg width="29" height="29" viewBox="0 0 29 29" fill="none" xmlns="http://www.w3.org/2000/svg">
<g clip-path="url(#clip0_2340_70737)">
<path d="M16.71 26.7793C17.5537 26.7793 18.1514 26.0527 18.585 24.9277L26.2608 4.87696C26.4717 4.3379 26.5889 3.85743 26.5889 3.45899C26.5889 2.69727 26.1201 2.22852 25.3584 2.22852C24.96 2.22852 24.4795 2.34571 23.9404 2.55664L3.78418 10.2793C2.7998 10.6543 2.03809 11.2519 2.03809 12.1074C2.03809 13.1855 2.8584 13.5488 3.9834 13.8887L10.3115 15.8105C11.0615 16.0449 11.4834 16.0215 11.9873 15.5527L24.8428 3.54102C24.9951 3.4004 25.1709 3.42383 25.2881 3.5293C25.4053 3.64649 25.417 3.82227 25.2764 3.97461L13.3115 16.8769C12.8545 17.3574 12.8193 17.7558 13.042 18.541L14.9053 24.7285C15.2569 25.9121 15.6201 26.7793 16.71 26.7793Z" fill="black" fill-opacity="0.85"/>
</g>
<defs>
<clipPath id="clip0_2340_70737">
<rect width="24.5508" height="25.6758" fill="white" transform="translate(2.03809 1.10352)"/>
</clipPath>
</defs>
</svg>
