<svg width="29" height="29" viewBox="0 0 29 29" fill="none" xmlns="http://www.w3.org/2000/svg">
<g clip-path="url(#clip0_2340_82630)">
<path d="M2.75952 26.3444C3.80249 27.3873 5.02124 27.3053 6.07593 26.0983L17.2204 13.4069L13.7751 9.96152L1.04859 21.0709C-0.170165 22.1373 -0.240478 23.3444 0.802491 24.399L2.75952 26.3444ZM23.5954 16.2545C24.0993 16.735 24.6735 16.7701 25.154 16.2897L28.6814 12.7858C29.1384 12.3287 29.1032 11.7194 28.611 11.2389L27.7673 10.3834C27.3103 9.93808 27.0173 9.86777 26.5251 9.90293L25.154 10.067L24.2751 9.18808L24.6735 7.53574C24.8728 6.72715 24.5681 5.87168 23.7126 5.01621L21.3571 2.68418C18.0993 -0.561912 12.0993 -0.925196 8.73608 2.42637C8.17358 2.98887 8.27905 3.62168 8.64233 4.02012C8.92358 4.28965 9.35718 4.43027 9.76733 4.30137C12.0407 3.62168 14.0212 3.49277 15.7321 4.5123L14.8298 6.87949C14.4431 7.87558 14.654 8.57871 15.2868 9.22324L17.9001 11.8365C18.3806 12.317 18.8845 12.4576 19.6462 12.3053L21.5329 11.9186L22.4001 12.7975L22.2712 14.1686C22.236 14.6842 22.2829 14.9889 22.7517 15.4225L23.5954 16.2545Z" fill="black" fill-opacity="0.85"/>
</g>
<defs>
<clipPath id="clip0_2340_82630">
<rect width="28.9301" height="27.1897" fill="white" transform="translate(0.0732422 0.0756836)"/>
</clipPath>
</defs>
</svg>
