<svg width="29" height="29" viewBox="0 0 29 29" fill="none" xmlns="http://www.w3.org/2000/svg">
<g clip-path="url(#clip0_2340_97577)">
<path d="M5.34328 23.4438C5.75343 23.8423 6.43312 23.8423 6.83156 23.4438L14.3316 15.9438L21.8315 23.4438C22.23 23.8423 22.9214 23.854 23.3198 23.4438C23.7182 23.0337 23.7182 22.3657 23.3198 21.9673L15.8198 14.4556L23.3198 6.95558C23.7182 6.55714 23.73 5.87746 23.3198 5.47902C22.9096 5.06886 22.23 5.06886 21.8315 5.47902L14.3316 12.979L6.83156 5.47902C6.43312 5.06886 5.74172 5.05714 5.34328 5.47902C4.94484 5.88918 4.94484 6.55714 5.34328 6.95558L12.8433 14.4556L5.34328 21.9673C4.94484 22.3657 4.93312 23.0454 5.34328 23.4438Z" fill="black" fill-opacity="0.85"/>
</g>
<defs>
<clipPath id="clip0_2340_97577">
<rect width="18.583" height="18.5948" fill="white" transform="translate(5.04004 5.15234)"/>
</clipPath>
</defs>
</svg>
