<svg width="29" height="29" viewBox="0 0 29 29" fill="none" xmlns="http://www.w3.org/2000/svg">
<g clip-path="url(#clip0_2340_82998)">
<path d="M17.0918 23.8057H11.0449V16.0596C11.0449 15.5205 11.4082 15.169 11.9473 15.169H16.2012C16.7402 15.169 17.0918 15.5205 17.0918 16.0596V23.8057ZM3.74414 23.1026C3.74414 24.7315 4.72851 25.6924 6.38086 25.6924H21.791C23.4434 25.6924 24.416 24.7315 24.416 23.1026V13.8213L14.7832 5.74707C14.3379 5.37207 13.8106 5.38379 13.377 5.74707L3.74414 13.8213V23.1026ZM0.0878906 12.6494C0.0878906 13.1299 0.462891 13.5869 1.0957 13.5869C1.42383 13.5869 1.69336 13.4112 1.93945 13.2119L13.6699 3.36817C13.9277 3.13379 14.2441 3.13379 14.502 3.36817L26.2324 13.2119C26.4668 13.4112 26.7363 13.5869 27.0645 13.5869C27.6152 13.5869 28.0606 13.2471 28.0606 12.6846C28.0606 12.333 27.9434 12.0987 27.6973 11.8877L15.4981 1.63379C14.6309 0.895508 13.5527 0.895508 12.6738 1.63379L0.462891 11.8877C0.205079 12.0987 0.0878906 12.3799 0.0878906 12.6494ZM21.4746 7.36426L24.416 9.84863V4.43457C24.416 3.91895 24.0879 3.59082 23.5723 3.59082H22.3184C21.8145 3.59082 21.4746 3.91895 21.4746 4.43457V7.36426Z" fill="black" fill-opacity="0.85"/>
</g>
<defs>
<clipPath id="clip0_2340_82998">
<rect width="27.9727" height="26.5957" fill="white" transform="translate(0.0878906 1.08008)"/>
</clipPath>
</defs>
</svg>
