<svg width="29" height="29" viewBox="0 0 29 29" fill="none" xmlns="http://www.w3.org/2000/svg">
<g clip-path="url(#clip0_2340_81253)">
<path d="M7.99024 26.9931C8.44727 26.9931 8.78711 26.7587 9.33789 26.2431L13.5684 22.3759H21.4902C24.9824 22.3759 26.8574 20.4541 26.8574 17.0205V8.04395C26.8574 4.61036 24.9824 2.67676 21.4902 2.67676H6.39649C2.9043 2.67676 1.0293 4.59864 1.0293 8.04395V17.0205C1.0293 20.4658 2.9043 22.3759 6.39649 22.3759H6.94727V25.7861C6.94727 26.5126 7.32227 26.9931 7.99024 26.9931Z" fill="black" fill-opacity="0.85"/>
<path d="M8.64649 18.626C8.17774 18.626 7.9668 18.3212 7.9668 17.8994C7.9668 16.6337 9.87696 13.3292 13.9551 13.3292C18.0332 13.3292 19.9434 16.6337 19.9434 17.8994C19.9434 18.3212 19.7207 18.626 19.252 18.626H8.64649ZM13.9551 12.3799C12.3027 12.3682 10.9668 10.9854 10.9668 9.12207C10.9668 7.3877 12.3027 5.93457 13.9551 5.93457C15.5957 5.93457 16.9316 7.3877 16.9316 9.12207C16.9316 10.9854 15.5957 12.3917 13.9551 12.3799Z" fill="white"/>
</g>
<defs>
<clipPath id="clip0_2340_81253">
<rect width="25.8281" height="25.8867" fill="white" transform="translate(1.0293 1.10645)"/>
</clipPath>
</defs>
</svg>
