<svg xmlns="http://www.w3.org/2000/svg"  viewBox="0 0 32 32" width="32px" height="32px"><path d="M 4 5 L 4 27 L 7 27 L 7 25 L 6 25 L 6 7 L 7 7 L 7 5 L 4 5 z M 25 5 L 25 7 L 26 7 L 26 25 L 25 25 L 25 27 L 28 27 L 28 5 L 25 5 z M 19.314453 12.001953 C 18.715209 11.989607 18.11025 12.139437 17.625 12.476562 C 17.313 12.693562 17.044328 12.969328 16.736328 13.236328 C 16.266328 12.291328 15.416266 12.040437 14.447266 12.023438 C 13.465266 12.006437 12.682 12.458203 12 13.283203 L 12 12.263672 L 10 12.263672 L 10 20 L 12 20 C 12 20 11.996953 17.090156 12.001953 15.660156 C 12.002953 15.405156 12.013453 15.146437 12.064453 14.898438 C 12.222453 14.134438 13.020922 13.663562 13.794922 13.726562 C 14.532922 13.786563 14.964 14.193219 15 15.074219 C 15.006 15.227219 15 20 15 20 L 17 20 L 17 15.693359 C 17.004 15.364359 17.038187 15.027984 17.117188 14.708984 C 17.295188 13.993984 17.959281 13.643469 18.738281 13.730469 C 19.425281 13.807469 19.949 14.1815 20 14.9375 L 20 20 L 22 20 L 22 14.404297 C 21.993 14.034297 21.862266 13.639688 21.697266 13.304688 C 21.297891 12.493437 20.313193 12.022529 19.314453 12.001953 z"/></svg>